<?xml version="1.0" encoding="utf-8"?>
<!-- Generator: Adobe Illustrator 16.0.0, SVG Export Plug-In . SVG Version: 6.00 Build 0)  -->
<!DOCTYPE svg PUBLIC "-//W3C//DTD SVG 1.1//EN" "http://www.w3.org/Graphics/SVG/1.1/DTD/svg11.dtd">
<svg version="1.1" id="Layer_1" xmlns="http://www.w3.org/2000/svg" xmlns:xlink="http://www.w3.org/1999/xlink" x="0px" y="0px"
	 width="32px" height="32px" viewBox="0 0 32 32" enable-background="new 0 0 32 32" xml:space="preserve">
<g>
	<path d="M11,32h11c2.21,0,4-1.79,4-4V15c0-2.21-1.79-4-4-4H11c-2.21,0-4,1.79-4,4v13C7,30.21,8.79,32,11,32z M9,15c0-1.1,0.9-2,2-2
		h11c1.1,0,2,0.9,2,2v2H9V15z M9,19h15v9c0,1.1-0.9,2-2,2H11c-1.1,0-2-0.9-2-2V19z"/>
</g>
<g>
	<path fill="#ED1C24" d="M22,14L22,14c0.553,0,1,0.447,1,1s-0.447,1-1,1l0,0c-0.553,0-1-0.447-1-1S21.447,14,22,14z"/>
</g>
<g>
	<path fill="#ED1C24" d="M18.333,14L18.333,14c0.553,0,1,0.447,1,1s-0.447,1-1,1l0,0c-0.553,0-1-0.447-1-1S17.78,14,18.333,14z"/>
</g>
<g>
	<path fill="#ED1C24" d="M14.667,14L14.667,14c0.553,0,1,0.447,1,1s-0.447,1-1,1l0,0c-0.553,0-1-0.447-1-1S14.114,14,14.667,14z"/>
</g>
<g>
	<path fill="#ED1C24" d="M11,14L11,14c0.553,0,1,0.447,1,1s-0.447,1-1,1l0,0c-0.553,0-1-0.447-1-1S10.447,14,11,14z"/>
</g>
</svg>
