<?xml version="1.0" encoding="utf-8"?>
<!-- Generator: Adobe Illustrator 16.0.0, SVG Export Plug-In . SVG Version: 6.00 Build 0)  -->
<!DOCTYPE svg PUBLIC "-//W3C//DTD SVG 1.1//EN" "http://www.w3.org/Graphics/SVG/1.1/DTD/svg11.dtd">
<svg version="1.1" id="Layer_1" xmlns="http://www.w3.org/2000/svg" xmlns:xlink="http://www.w3.org/1999/xlink" x="0px" y="0px"
	 width="26.415px" height="32px" viewBox="0 0 26.415 32" enable-background="new 0 0 26.415 32" xml:space="preserve">
<g>
	<path d="M20,28V10c0-2.21-1.791-4-4-4H4c-2.21,0-4,1.79-4,4v18c0,2.21,1.79,4,4,4h12C18.209,32,20,30.21,20,28z M18,12H2v-2
		c0-1.1,0.9-2,2-2h12c1.1,0,2,0.9,2,2V12z M18,28c0,1.1-0.9,2-2,2H4c-1.1,0-2-0.9-2-2V14h16V28z"/>
</g>
<g>
	<path fill="#ED1C24" d="M10,9L10,9c-0.553,0-1,0.447-1,1s0.447,1,1,1l0,0c0.553,0,1-0.447,1-1S10.553,9,10,9z"/>
</g>
<g>
	<path fill="#ED1C24" d="M5,17v8c0,0.553,0.447,1,1,1s1-0.447,1-1v-8c0-0.553-0.447-1-1-1S5,16.447,5,17z"/>
</g>
</svg>
