<?xml version="1.0" encoding="utf-8"?>
<!-- Generator: Adobe Illustrator 16.0.0, SVG Export Plug-In . SVG Version: 6.00 Build 0)  -->
<!DOCTYPE svg PUBLIC "-//W3C//DTD SVG 1.1//EN" "http://www.w3.org/Graphics/SVG/1.1/DTD/svg11.dtd">
<svg version="1.1" id="Layer_1" xmlns="http://www.w3.org/2000/svg" xmlns:xlink="http://www.w3.org/1999/xlink" x="0px" y="0px"
	 width="32px" height="32px" viewBox="0 0 32 32" enable-background="new 0 0 32 32" xml:space="preserve">
<g>
	<g>
		<path d="M20.92,0h-9.95C9.34,0,7.91,0.86,6.99,2.07C6.38,2.89,6,4.03,6,5.14v21.889C6,29.77,8.23,32,10.97,32h9.95
			c1.12,0,2.221-0.38,3.04-1c1.21-0.91,2.04-2.34,2.04-3.971V5.14C26,2.4,23.67,0,20.92,0z M24,27.029C24,28.68,22.57,30,20.92,30
			h-9.95C9.32,30,8,28.68,8,27.029V12h16V27.029z M24,10H8V5.14C8,3.49,9.32,2,10.97,2h9.95C22.57,2,24,3.49,24,5.14V10z"/>
	</g>
</g>
<path fill="#ED1C24" d="M21,14v12c0,0.55-0.45,1-1,1s-1-0.45-1-1V14c0-0.55,0.45-1,1-1S21,13.45,21,14z"/>
<path fill="#ED1C24" d="M21,4v4c0,0.55-0.45,1-1,1s-1-0.45-1-1V4c0-0.55,0.45-1,1-1S21,3.45,21,4z"/>
</svg>
