<?xml version="1.0" encoding="utf-8"?>
<!-- Generator: Adobe Illustrator 16.0.0, SVG Export Plug-In . SVG Version: 6.00 Build 0)  -->
<!DOCTYPE svg PUBLIC "-//W3C//DTD SVG 1.1//EN" "http://www.w3.org/Graphics/SVG/1.1/DTD/svg11.dtd">
<svg version="1.1" id="Layer_1" xmlns="http://www.w3.org/2000/svg" xmlns:xlink="http://www.w3.org/1999/xlink" x="0px" y="0px"
	 width="16px" height="16px" viewBox="0 0 16 16" enable-background="new 0 0 16 16" xml:space="preserve">
<g>
	<path fill="#FFFFFF" d="M3.5,1C3.19,1.41,3,1.94,3,2.5V1H3.5z"/>
	<path fill="#FFFFFF" d="M5.5,16H3v-2.5C3,14.88,4.12,16,5.5,16z"/>
	<rect x="10" y="2" fill="#FFFFFF" width="1" height="2"/>
	<path fill="#FFFFFF" d="M12,1v1.5C12,1.67,11.33,1,10.5,1H12z"/>
	<rect x="10" y="7" fill="#FFFFFF" width="1" height="6"/>
	<path fill="#FFFFFF" d="M12,15.5V16h-1.5C11.06,16,11.59,15.81,12,15.5z"/>
	<g>
		<path fill="#231F20" d="M10.5,1C11.33,1,12,1.67,12,2.5V1H10.5z"/>
		<path fill="#231F20" d="M10.5,0h-5c-0.82,0-1.54,0.39-2,1C3.19,1.41,3,1.94,3,2.5v11C3,14.88,4.12,16,5.5,16h5
			c0.56,0,1.09-0.19,1.5-0.5c0.61-0.46,1-1.18,1-2v-11C13,1.12,11.88,0,10.5,0z M12,13.5c0,0.83-0.67,1.5-1.5,1.5h-5
			C4.67,15,4,14.33,4,13.5V6h8V13.5z M12,5H4V2.5C4,1.67,4.67,1,5.5,1H12V5z"/>
	</g>
</g>
<g>
	<rect x="10" y="2" fill="#ED1C24" width="1" height="2"/>
</g>
<g>
	<rect x="10" y="7" fill="#ED1C24" width="1" height="6"/>
</g>
</svg>
