<?xml version="1.0" encoding="utf-8"?>
<!-- Generator: Adobe Illustrator 16.0.0, SVG Export Plug-In . SVG Version: 6.00 Build 0)  -->
<!DOCTYPE svg PUBLIC "-//W3C//DTD SVG 1.1//EN" "http://www.w3.org/Graphics/SVG/1.1/DTD/svg11.dtd">
<svg version="1.1" id="Layer_1" xmlns="http://www.w3.org/2000/svg" xmlns:xlink="http://www.w3.org/1999/xlink" x="0px" y="0px"
	 width="100px" height="100px" viewBox="0 0 100 100" enable-background="new 0 0 100 100" xml:space="preserve">
<g>
	<path d="M50.378,16.449v-2.418h2.158l-0.754-1.768H45.75l-0.754,1.768h2.236v2.418h-6.188v-2.418h1.534l4.238-10.037h-3.198V1.576
		h6.266l5.096,12.455h1.456v2.418H50.378z M48.792,5.034l-2.028,4.811h4.056L48.792,5.034z"/>
	<path d="M38.86,26.938h-2.107v1.837h2.197v1.674h-5.275v-1.674h1.422v-6.95h-1.405v-1.675h4.682c1.188,0,2.467,0.271,3.241,1.152
		c0.558,0.648,0.792,1.458,0.792,2.323C42.407,25.479,41.003,26.938,38.86,26.938z M39.814,22.076
		c-0.432-0.198-0.99-0.252-1.44-0.252h-1.621v3.439h1.422c0.612,0,1.243,0,1.783-0.252c0.342-0.162,0.792-0.612,0.792-1.44
		C40.75,22.922,40.391,22.346,39.814,22.076z"/>
	<path d="M60.352,26.938h-2.106v1.837h2.196v1.674h-5.275v-1.674h1.423v-6.95h-1.404v-1.675h4.681c1.188,0,2.467,0.271,3.241,1.152
		c0.559,0.648,0.792,1.458,0.792,2.323C63.898,25.479,62.494,26.938,60.352,26.938z M61.306,22.076
		c-0.432-0.198-0.99-0.252-1.44-0.252h-1.62v3.439h1.423c0.611,0,1.242,0,1.782-0.252c0.342-0.162,0.792-0.612,0.792-1.44
		C62.242,22.922,61.882,22.346,61.306,22.076z"/>
	<path d="M28.455,44.449v-1.303h1.331v-5.407h-1.331v-1.303h4.3v1.303h-1.681v5.407h3.18v-2.465h1.303v3.768H28.455z"/>
	<path d="M45.801,44.449v-1.303h2.311v-5.407h-2.311v-1.303h5.911v1.303h-2.269v5.407h2.269v1.303H45.801z"/>
	<path d="M66.424,44.449v-1.303h1.162l-0.406-0.953h-3.249l-0.406,0.953h1.204v1.303h-3.334v-1.303h0.827l2.283-5.407h-1.724v-1.303
		h3.376l2.746,6.709h0.784v1.303H66.424z M65.569,38.299l-1.093,2.591h2.186L65.569,38.299z"/>
	<path d="M37.073,52.704v5.745h-1.055l-3.095-4.894v3.778h1.164v1.115h-3.178v-1.115h0.912v-4.63h-0.912v-1.115h2.147l2.914,4.762
		v-3.646h-1.115v-1.115h3.142v1.115H37.073z"/>
	<path d="M49.109,58.593c-2.566,0-3.346-2.23-3.346-3.609c0-2.039,1.379-3.526,3.274-3.526c0.996,0,1.607,0.384,1.763,0.504v-0.504
		h1.104v2.795h-1.104v-1.14c-0.516-0.324-1.127-0.563-1.751-0.563c-0.852,0-2.17,0.611-2.17,2.446c0,1.26,0.635,2.495,2.194,2.495
		c0.96,0,1.812-0.517,2.195-0.78l0.671,0.815C51.028,58.354,49.577,58.593,49.109,58.593z"/>
	<path d="M60.115,58.449v-1.115h0.948v-4.63H60.14v-1.115h6.009v2.543h-1.115v-1.428h-2.866v1.703h1.271v-0.791h1.116v2.687h-1.116
		v-0.792h-1.271v1.823h2.866v-1.392h1.115v2.507H60.115z"/>
	<path d="M26.432,70.449v-0.858l2.772-2.453c0.561-0.495,0.77-0.858,0.77-1.298c0-0.727-0.594-1.111-1.232-1.111
		c-0.066,0-1.089,0.044-1.089,0.77v0.21h-1.012v-0.969c0.55-0.671,1.288-1.034,2.134-1.034c1.045,0,1.706,0.583,2.002,1.178
		c0.132,0.264,0.165,0.571,0.165,0.88c0,1.1-0.693,1.639-1.54,2.42l-1.342,1.232h1.914v-0.726h0.968v1.76H26.432z"/>
	<path d="M42.152,70.581c-2.057,0-2.222-2.453-2.222-3.41c0-0.825,0.077-3.455,2.244-3.455c1.991,0,2.189,2.277,2.189,3.444
		C44.363,67.974,44.275,70.581,42.152,70.581z M42.152,64.729c-1.122,0-1.188,1.617-1.21,2.255v0.275
		c0,0.847,0.132,2.311,1.232,2.311c1.034,0,1.188-1.496,1.188-2.377C43.362,66.555,43.318,64.729,42.152,64.729z"/>
	<path d="M52.832,70.449v-0.858l2.772-2.453c0.562-0.495,0.771-0.858,0.771-1.298c0-0.727-0.595-1.111-1.232-1.111
		c-0.066,0-1.089,0.044-1.089,0.77v0.21h-1.013v-0.969c0.55-0.671,1.287-1.034,2.135-1.034c1.045,0,1.705,0.583,2.002,1.178
		c0.132,0.264,0.165,0.571,0.165,0.88c0,1.1-0.693,1.639-1.54,2.42l-1.343,1.232h1.915v-0.726h0.968v1.76H52.832z"/>
	<path d="M68.551,70.581c-2.058,0-2.223-2.453-2.223-3.41c0-0.825,0.077-3.455,2.244-3.455c1.992,0,2.189,2.277,2.189,3.444
		C70.762,67.974,70.674,70.581,68.551,70.581z M68.551,64.729c-1.122,0-1.188,1.617-1.21,2.255v0.275
		c0,0.847,0.132,2.311,1.231,2.311c1.034,0,1.188-1.496,1.188-2.377C69.761,66.555,69.717,64.729,68.551,64.729z"/>
	<path d="M21.588,82.449h-2.314v-0.837h0.711v-3.476h-0.711V77.3h2.53c0.396,0,0.801,0.054,1.152,0.234
		c0.855,0.44,1.152,1.386,1.152,2.241C24.108,81.837,22.92,82.449,21.588,82.449z M21.831,78.137h-1.018v3.476h0.738
		c0.387,0,0.729-0.019,1.035-0.207c0.522-0.333,0.693-0.981,0.693-1.594C23.28,78.894,22.884,78.137,21.831,78.137z"/>
	<path d="M34.026,79.199v-1.063h-2.115v1.287h0.963V78.83h0.829v2.017h-0.829v-0.585h-0.963v1.351h1.107v0.837h-2.61v-0.837h0.675
		v-3.476h-0.666V77.3h4.447v1.899H34.026z"/>
	<path d="M43.772,80.693h-1.053v0.919h1.098v0.837H41.18v-0.837h0.711v-3.476h-0.702V77.3h2.34c0.594,0,1.233,0.135,1.621,0.576
		c0.279,0.324,0.396,0.729,0.396,1.161C45.546,79.965,44.844,80.693,43.772,80.693z M44.25,78.263
		c-0.216-0.099-0.495-0.126-0.72-0.126h-0.81v1.72h0.711c0.306,0,0.621,0,0.891-0.126c0.171-0.081,0.396-0.307,0.396-0.721
		C44.718,78.687,44.538,78.398,44.25,78.263z"/>
	<path d="M54.158,82.558c-1.152,0-2.395-0.855-2.395-2.656c0-1.396,0.9-2.701,2.395-2.701c1.585,0,2.377,1.414,2.377,2.684
		C56.535,81.909,55.05,82.558,54.158,82.558z M54.158,78.038c-1.026,0-1.549,0.99-1.549,1.836c0,0.9,0.514,1.864,1.549,1.864
		c1.152,0,1.558-1.144,1.558-1.891C55.716,79.208,55.338,78.038,54.158,78.038z"/>
	<path d="M66.472,79.263v-1.126h-1.099v3.476h1.09v0.837h-3.007v-0.837h1.08v-3.476h-1.099v1.126h-0.837V77.3h4.708v1.963H66.472z"
		/>
	<path d="M73.473,82.449v-0.837h0.712v-3.476h-0.693V77.3h4.511v1.908h-0.838v-1.071h-2.151v1.278h0.954v-0.594h0.837v2.017h-0.837
		v-0.595h-0.954v1.369h2.151v-1.045h0.838v1.882H73.473z"/>
	<path d="M16.273,94.521c-0.492,0-1.049-0.223-1.259-0.306l0.198-0.48c0.342,0.132,0.695,0.234,1.073,0.234
		c0.474,0,0.75-0.282,0.75-0.66c0-0.432-0.354-0.671-0.762-0.671c-0.078,0-0.366,0-0.726,0.233l-0.288-0.156v-1.871h2.177v0.559
		h-1.625v0.779c0.186-0.061,0.372-0.096,0.552-0.096c0.833,0,1.217,0.6,1.217,1.205C17.581,93.928,17.161,94.521,16.273,94.521z"/>
	<path d="M23.545,94.521c-1.122,0-1.211-1.338-1.211-1.859c0-0.449,0.042-1.883,1.223-1.883c1.085,0,1.193,1.241,1.193,1.877
		C24.75,93.1,24.703,94.521,23.545,94.521z M23.545,91.331c-0.612,0-0.648,0.882-0.66,1.229v0.149c0,0.462,0.072,1.26,0.671,1.26
		c0.564,0,0.648-0.815,0.648-1.296C24.205,92.326,24.181,91.331,23.545,91.331z"/>
	<path d="M30.62,94.521c-0.558,0-0.978-0.223-1.266-0.33l0.204-0.468c0.54,0.186,0.708,0.246,1.001,0.246
		c0.39,0,0.726-0.21,0.726-0.582c0-0.485-0.498-0.533-0.696-0.533h-0.318v-0.552h0.084c0.258,0,0.756-0.042,0.756-0.498
		c0-0.354-0.318-0.468-0.552-0.468c-0.24,0-0.438,0.072-0.846,0.306l-0.27-0.432c0.342-0.222,0.684-0.432,1.109-0.432
		c0.377,0,0.713,0.138,0.953,0.443c0.114,0.15,0.156,0.348,0.156,0.546c0,0.414-0.21,0.618-0.36,0.756
		c0.276,0.191,0.528,0.378,0.528,0.888C31.831,94.258,31.069,94.521,30.62,94.521z"/>
	<path d="M37.916,94.449h-0.6l1.151-3.046H37.13v0.461h-0.551v-1.02h2.47v0.408L37.916,94.449z"/>
	<path d="M45.146,94.516c-0.564,0-1.235-0.349-1.235-1.067c0-0.354,0.198-0.666,0.492-0.852c-0.276-0.21-0.432-0.475-0.432-0.798
		c0-0.51,0.432-1.025,1.163-1.025c0.672,0,1.164,0.438,1.164,1.014c0,0.354-0.162,0.611-0.414,0.803
		c0.312,0.204,0.486,0.492,0.486,0.858C46.369,93.892,46.021,94.516,45.146,94.516z M45.128,92.89c-0.354,0-0.66,0.223-0.66,0.528
		c0,0.275,0.27,0.546,0.708,0.546c0.3,0,0.647-0.21,0.647-0.558C45.823,93.142,45.602,92.89,45.128,92.89z M45.128,91.331
		c-0.36,0-0.6,0.222-0.6,0.504c0,0.306,0.288,0.497,0.618,0.497c0.306,0,0.605-0.18,0.605-0.516
		C45.751,91.606,45.614,91.331,45.128,91.331z"/>
	<path d="M50.973,94.449v-0.468l1.512-1.337c0.306-0.271,0.419-0.468,0.419-0.708c0-0.396-0.323-0.605-0.671-0.605
		c-0.036,0-0.594,0.023-0.594,0.42v0.113h-0.552v-0.527c0.3-0.366,0.701-0.563,1.163-0.563c0.569,0,0.93,0.317,1.092,0.642
		c0.071,0.144,0.09,0.312,0.09,0.479c0,0.6-0.378,0.894-0.84,1.319l-0.731,0.672h1.043V93.49h0.528v0.959H50.973z"/>
	<path d="M59.545,94.516c-0.563,0-1.235-0.349-1.235-1.067c0-0.354,0.198-0.666,0.492-0.852c-0.276-0.21-0.432-0.475-0.432-0.798
		c0-0.51,0.432-1.025,1.163-1.025c0.672,0,1.163,0.438,1.163,1.014c0,0.354-0.161,0.611-0.413,0.803
		c0.312,0.204,0.485,0.492,0.485,0.858C60.769,93.892,60.421,94.516,59.545,94.516z M59.527,92.89c-0.354,0-0.66,0.223-0.66,0.528
		c0,0.275,0.271,0.546,0.708,0.546c0.3,0,0.647-0.21,0.647-0.558C60.223,93.142,60.001,92.89,59.527,92.89z M59.527,91.331
		c-0.36,0-0.6,0.222-0.6,0.504c0,0.306,0.288,0.497,0.617,0.497c0.307,0,0.606-0.18,0.606-0.516
		C60.151,91.606,60.013,91.331,59.527,91.331z"/>
	<path d="M65.503,94.449v-0.558h1.038v-2.471l-1.014,0.204v-0.546l1.571-0.317v3.13h1.013v0.558H65.503z"/>
	<path d="M73.943,94.521c-1.121,0-1.211-1.338-1.211-1.859c0-0.449,0.042-1.883,1.224-1.883c1.085,0,1.193,1.241,1.193,1.877
		C75.149,93.1,75.101,94.521,73.943,94.521z M73.943,91.331c-0.611,0-0.647,0.882-0.659,1.229v0.149c0,0.462,0.072,1.26,0.672,1.26
		c0.563,0,0.647-0.815,0.647-1.296C74.604,92.326,74.579,91.331,73.943,91.331z"/>
	<path d="M81.143,94.521c-1.121,0-1.211-1.338-1.211-1.859c0-0.449,0.042-1.883,1.224-1.883c1.085,0,1.193,1.241,1.193,1.877
		C82.349,93.1,82.3,94.521,81.143,94.521z M81.143,91.331c-0.611,0-0.647,0.882-0.659,1.229v0.149c0,0.462,0.072,1.26,0.672,1.26
		c0.563,0,0.647-0.815,0.647-1.296C81.803,92.326,81.778,91.331,81.143,91.331z"/>
</g>
</svg>
