<?xml version="1.0" encoding="utf-8"?>
<!-- Generator: Adobe Illustrator 16.0.0, SVG Export Plug-In . SVG Version: 6.00 Build 0)  -->
<!DOCTYPE svg PUBLIC "-//W3C//DTD SVG 1.1//EN" "http://www.w3.org/Graphics/SVG/1.1/DTD/svg11.dtd">
<svg version="1.1" id="Layer_1" xmlns="http://www.w3.org/2000/svg" xmlns:xlink="http://www.w3.org/1999/xlink" x="0px" y="0px"
	 width="32px" height="32px" viewBox="0 0 32 32" enable-background="new 0 0 32 32" xml:space="preserve">
<g>
	<g>
		<path d="M27,26.92v-5.949c0-1.631-0.859-3.061-2.07-3.979C24.109,16.38,22.971,16,21.859,16H4.97C2.23,16,0,18.23,0,20.971v5.949
			c0,1.12,0.38,2.221,1,3.04C1.91,31.17,3.34,32,4.97,32h16.889C24.6,32,27,29.67,27,26.92z M4.97,30C3.32,30,2,28.57,2,26.92
			v-5.949C2,19.32,3.32,18,4.97,18H20v12H4.97z M22,30V18h-0.141C23.51,18,25,19.32,25,20.971v5.949c0,1.65-1.49,3.08-3.141,3.08H22
			z"/>
	</g>
</g>
<path fill="#ED1C24" d="M14.75,28v-8c0-0.55,0.45-1,1-1s1,0.45,1,1v8c0,0.55-0.45,1-1,1S14.75,28.55,14.75,28z"/>
</svg>
