<?xml version="1.0" encoding="utf-8"?>
<!-- Generator: Adobe Illustrator 16.0.0, SVG Export Plug-In . SVG Version: 6.00 Build 0)  -->
<!DOCTYPE svg PUBLIC "-//W3C//DTD SVG 1.1//EN" "http://www.w3.org/Graphics/SVG/1.1/DTD/svg11.dtd">
<svg version="1.1" id="Layer_1" xmlns="http://www.w3.org/2000/svg" xmlns:xlink="http://www.w3.org/1999/xlink" x="0px" y="0px"
	 width="27.792px" height="32px" viewBox="0 0 27.792 32" enable-background="new 0 0 27.792 32" xml:space="preserve">
<g>
	<path d="M11.793,32h12c2.211,0,4-1.79,4-4V10c0-2.21-1.789-4-4-4h-12c-2.21,0-4,1.79-4,4v18C7.793,30.21,9.583,32,11.793,32z
		 M9.793,10c0-1.1,0.9-2,2-2h12c1.102,0,2,0.9,2,2v2h-16V10z M9.793,14h16v14c0,1.1-0.898,2-2,2h-12c-1.1,0-2-0.9-2-2V14z"/>
</g>
<g>
	<path fill="#ED1C24" d="M17.792,9L17.792,9c0.554,0,1,0.447,1,1s-0.446,1-1,1l0,0c-0.553,0-1-0.447-1-1S17.24,9,17.792,9z"/>
</g>
<g>
	<path fill="#ED1C24" d="M23.792,17v8c0,0.553-0.446,1-1,1c-0.553,0-1-0.447-1-1v-8c0-0.553,0.447-1,1-1
		C23.346,16,23.792,16.447,23.792,17z"/>
</g>
</svg>
