<?xml version="1.0" encoding="utf-8"?>
<!-- Generator: Adobe Illustrator 16.0.0, SVG Export Plug-In . SVG Version: 6.00 Build 0)  -->
<!DOCTYPE svg PUBLIC "-//W3C//DTD SVG 1.1//EN" "http://www.w3.org/Graphics/SVG/1.1/DTD/svg11.dtd">
<svg version="1.1" id="Layer_1" xmlns="http://www.w3.org/2000/svg" xmlns:xlink="http://www.w3.org/1999/xlink" x="0px" y="0px"
	 width="32px" height="32px" viewBox="0 0 32 32" enable-background="new 0 0 32 32" xml:space="preserve">
<g>
	<path d="M22,11H10c-2.21,0-4,1.79-4,4v13c0,2.21,1.79,4,4,4h12c2.21,0,4-1.79,4-4V15C26,12.79,24.21,11,22,11z M24,28
		c0,1.1-0.9,2-2,2H10c-1.1,0-2-0.9-2-2v-1h16V28z M24,25H8V15c0-1.1,0.9-2,2-2h12c1.1,0,2,0.9,2,2V25z"/>
</g>
<path d="M26,9v3c-0.469-0.859-1.125-1.337-2-1.719V9c0-1.1-0.9-2-2-2H10C8.9,7,8,7.9,8,9v1.297c-0.984,0.406-1.719,1.219-2,1.734
	V8.734C6,6.79,7.79,5,10,5h12C24.21,5,26,6.79,26,9z"/>
<g>
	<path fill="#ED1C24" d="M10,10L10,10c-0.552,0-1-0.448-1-1s0.448-1,1-1l0,0c0.553,0,1,0.448,1,1S10.553,10,10,10z"/>
</g>
<g>
	<path fill="#ED1C24" d="M13,10L13,10c-0.552,0-1-0.448-1-1s0.448-1,1-1l0,0c0.553,0,1,0.448,1,1S13.553,10,13,10z"/>
</g>
<g>
	<path fill="#ED1C24" d="M19,10L19,10c-0.553,0-1-0.448-1-1s0.447-1,1-1l0,0c0.553,0,1,0.448,1,1S19.553,10,19,10z"/>
</g>
<g>
	<path fill="#ED1C24" d="M22,10L22,10c-0.553,0-1-0.448-1-1s0.447-1,1-1l0,0c0.553,0,1,0.448,1,1S22.553,10,22,10z"/>
</g>
<g>
	<path fill="#ED1C24" d="M22,17H10c-0.552,0-1-0.448-1-1s0.448-1,1-1h12c0.553,0,1,0.448,1,1S22.553,17,22,17z"/>
</g>
</svg>
